<svg xmlns:rdf="http://www.w3.org/1999/02/22-rdf-syntax-ns#" xmlns="http://www.w3.org/2000/svg" height="24" width="24" version="1.1" xmlns:cc="http://creativecommons.org/ns#" xmlns:dc="http://purl.org/dc/elements/1.1/" viewBox="0 0 24 24">
 <g transform="translate(0 -1028.4)">
  <path d="m10.166 1042.6 0.47866 0.1854 3.1887-8.2084-0.47866-0.1853-3.1887 8.2083m4.9694-6.5249 2.5119 2.5134-2.5119 2.5135 0.36144 0.3618 2.8748-2.8753-2.8748-2.8753-0.36144 0.3619m-6.4626-0.3619-2.8748 2.8752 2.8748 2.8754 0.36144-0.3618-2.5133-2.5136 2.5133-2.5133-0.36144-0.3619m14.815 11.211c0 0.2242-0.18281 0.4067-0.40609 0.4067h-22.164c-0.22328 0-0.40609-0.1825-0.40609-0.4067v-15.763c0-0.2242 0.18281-0.4068 0.40609-0.4068h22.164c0.22328 0 0.40609 0.1826 0.40609 0.407v15.762zm-14.367 1.7225v-0.8039h5.7579v0.8039c-0.0084 0.066-0.01814 0.2396 0.03907 0.4219h-5.836c0.057216-0.1823 0.047447-0.3557 0.039074-0.4219m6.5547 0.9336h1.228v0.3365h-9.809v-0.3365h8.581zm7.406-19.337h-22.164c-0.50517 0-0.91825 0.4121-0.91825 0.9185v15.763c0 0.5065 0.41307 0.9186 0.91825 0.9186h7.6907v0.8215l0.00279 0.04c0.00837 0.049 0.01256 0.2074-0.058611 0.29-0.041865 0.049-0.12001 0.074-0.22886 0.074h-1.7416v1.36h10.833v-1.36h-1.7402c-0.10885 0-0.187-0.025-0.22886-0.074-0.07117-0.083-0.06698-0.2411-0.06001-0.2879l0.0028-0.8635h7.6921c0.50518 0 0.91825-0.4121 0.91825-0.9186v-15.762c0-0.5065-0.41307-0.9187-0.91825-0.9187m-21.506 1.5751h20.848v13.112h-20.848v-13.112zm-0.51215 13.624h21.872v-14.136h-21.872v14.136" fill="#414a55"/>
 </g>
</svg>
