<svg xmlns:rdf="http://www.w3.org/1999/02/22-rdf-syntax-ns#" xmlns="http://www.w3.org/2000/svg" height="24" width="24" version="1.1" xmlns:cc="http://creativecommons.org/ns#" xmlns:dc="http://purl.org/dc/elements/1.1/" viewBox="0 0 24.000001 24.000001">
 <g transform="translate(0 -1028.4)">
  <path d="m11.751 1049h0.73791v-0.7523h-0.73791v0.7523zm11.105-2.3349h-3.3997v0.7522h2.743 0.009c0.10391 0 0.19986 0.045 0.2705 0.1243 0.0723 0.081 0.10617 0.1871 0.0962 0.298-0.0173 0.1814-0.17596 0.3208-0.36675 0.3392-0.0137 0.001-0.0258 0.01-0.0398 0.01h-0.69801-0.79797c-0.037 0-0.0747-0.01-0.11196-0.01h-1.1047l-0.002 0.7523 1.172 0.01c0.0805 0.014 0.15375 0.053 0.21067 0.1141 0.0702 0.075 0.1059 0.1745 0.10085 0.2796-0.009 0.1872-0.19912 0.3576-0.39869 0.3576h-1.945c-0.90204 0-1.7982-0.1205-2.6788-0.3541-0.24711-0.066-0.49338-0.1375-0.73777-0.2214-0.15792-0.054-0.31529-0.1119-0.47192-0.1738-0.0533-0.02-0.11786-0.041-0.19193-0.041h-0.54584v-4.1277h0.42175c0.23749 0 0.53116-0.1241 0.67654-0.2748l0.1114-0.097 0.73777-0.6435 0.32204-0.2808c0.48173-0.4908 0.97095-0.6629 1.8005-0.6543l0.99525-0.01h0.002c0.0994 0 0.19312 0.039 0.26372 0.1112 0.0709 0.072 0.11023 0.1679 0.11023 0.27 0 0.2102-0.16744 0.381-0.3735 0.381h-1.2512v0.7522h4.521c0.11066 0 0.21543 0.049 0.28747 0.1352 0.0732 0.087 0.10332 0.1991 0.0858 0.3151-0.03 0.1931-0.21038 0.3385-0.42005 0.3385h-2.8024v0.7523h3.4285c0.099 0 0.19407 0.044 0.267 0.1256 0.0791 0.088 0.11915 0.2053 0.10952 0.3221-0.0152 0.1805-0.21226 0.3509-0.40537 0.3509zm-14.125-3.3972-0.47797-0.5697c-0.0305-0.032-0.0729-0.1358-0.073-0.1803v-0.4297h0.73173v-4.8645l0.61139-0.5333c0.0308-0.031 0.13298-0.074 0.17637-0.074h0.42164v0.7459h5.2373l0.47841 0.5702c0.0303 0.031 0.0729 0.1355 0.0729 0.1795v0.4301h-0.73172v4.8642l-0.61199 0.5339c-0.0307 0.031-0.13272 0.074-0.17596 0.074h-0.42175v-0.7461h-5.2374zm4.4996 6.3782v0.038h-4.6186v-1.3621c0.38272 0.1395 0.85954 0.042 1.1617-0.2682 0.20993-0.2152 0.32495-0.5011 0.32347-0.8044l-0.005-1.0074c0.0155-0.9754-0.2034-1.6375-0.72302-2.2218h3.8609v5.6259zm-4.9875-3.6668h-0.36874l-0.00015 4.6095c0 0.1127-0.0484 0.2197-0.13258 0.2932-0.0853 0.074-0.19495 0.1065-0.30953 0.087-0.1892-0.03-0.33185-0.2143-0.33185-0.4279v-2.8572h-0.73778v3.4959c0 0.101-0.0435 0.1975-0.12276 0.2718-0.0867 0.081-0.2023 0.1197-0.31629 0.1119-0.17666-0.015-0.34365-0.2163-0.34365-0.4136v-3.466h-0.73778v2.7965c0 0.1102-0.044 0.2116-0.12394 0.2854-0.0798 0.074-0.18256 0.108-0.29238 0.099-0.19035-0.019-0.33949-0.2018-0.33949-0.4148v-0.013l0.003-0.7522 0.003-0.762c0.003-0.037 0.005-0.075 0.005-0.1125v-1.126h-0.73777l-0.005 1.1941c-0.0136 0.082-0.0521 0.1577-0.11211 0.216-0.0737 0.071-0.17006 0.1091-0.27393 0.1028-0.1839-0.01-0.35133-0.2032-0.35133-0.4067l0.00029-1.9832c0-0.9385 0.12292-1.8708 0.3607-2.7845 0.0657-0.2523 0.13859-0.5032 0.22218-0.7523 0.0474-0.1413 0.0965-0.2825 0.14973-0.4228 0.0294-0.076 0.0426-0.1383 0.0426-0.2008v-0.5563l4.0485 0.0002v0.4297c0 0.2413 0.12148 0.5407 0.26944 0.6902l1.0016 1.194c0.48114 0.4903 0.65492 0.9859 0.64164 1.8355l0.004 1.0155c0.00059 0.1018-0.038 0.1979-0.10863 0.2698-0.0706 0.072-0.16486 0.1126-0.26512 0.1126-0.20606 0-0.3735-0.1708-0.3735-0.3809v-1.2753h-0.36904zm-5.625-4.6434v-4.2795h1.389c-0.0418 0.1192-0.0645 0.2474-0.0645 0.3811 0 0.3037 0.11627 0.5891 0.32738 0.8034 0.20979 0.213 0.48789 0.3299 0.78374 0.3299h0.005 0.98821c0.93001 0.017 1.5665-0.1924 2.1268-0.6883v3.458l-5.518-0.0003v0.0003h-0.0378zm-0.83446-5.0318c-0.11081 0-0.21543-0.049-0.28747-0.1351-0.0729-0.087-0.10318-0.1989-0.0853-0.3151 0.0298-0.1929 0.21037-0.3387 0.4199-0.3387h2.8022v-0.7522h-3.4286c-0.0991 0-0.19382-0.044-0.26671-0.1253-0.0794-0.088-0.11934-0.2059-0.10952-0.3224 0.015-0.1802 0.21181-0.3503 0.40504-0.3503h3.3998v-0.7523h-2.7429-0.01c-0.10388 0-0.19972-0.045-0.27018-0.1242-0.0723-0.081-0.10661-0.1872-0.0961-0.2981 0.017-0.1811 0.17562-0.3205 0.36626-0.339 0.0138-0.001 0.0262-0.01 0.0402-0.01h0.69757 0.80004c0.0365 0 0.0735 0.01 0.11037 0.01h1.1045l0.002-0.7522h-1.1709c-0.081-0.014-0.15446-0.053-0.21167-0.1141-0.0702-0.075-0.10606-0.1747-0.10086-0.2794 0.009-0.1874 0.19898-0.3581 0.39884-0.3581l1.9452 0.0003c0.90245 0 1.7989 0.1206 2.6788 0.3539 0.24712 0.066 0.49339 0.1375 0.73778 0.2213 0.15677 0.054 0.31311 0.1112 0.46859 0.1725 0.0506 0.02 0.11831 0.043 0.19526 0.043h0.54584l-0.00029 4.1279h-0.42164c-0.2369 0-0.53043 0.1239-0.67669 0.2748l-0.11107 0.097-0.73778 0.6433-0.32237 0.2811c-0.48114 0.4906-0.96556 0.6708-1.8 0.6542l-0.99589 0.01c-0.0882 0-0.19436-0.039-0.26541-0.1108-0.0709-0.072-0.10993-0.1681-0.10993-0.2703 0-0.2101 0.16744-0.3811 0.37335-0.3811l1.251 0.0002v-0.7525h-4.521zm9.0752-5.3204v-0.038h4.6189v1.3625c-0.38331-0.1396-0.85955-0.043-1.1617 0.2681-0.21038 0.2153-0.3251 0.5011-0.32367 0.8044l0.004 1.0074c-0.0154 0.9751 0.20363 1.6373 0.72324 2.222h-3.8611l0.0003-5.6261h-0.0003zm4.9876 3.6668h0.36859l0.00044-3.7051v-0.9043c0-0.1129 0.0482-0.2198 0.13258-0.2933 0.085-0.074 0.19352-0.1051 0.30905-0.087 0.1895 0.03 0.33215 0.2144 0.33215 0.4278v2.8573h0.73777v-3.4956c0-0.1013 0.0437-0.1979 0.12281-0.2721 0.0864-0.081 0.20141-0.1232 0.31643-0.1116 0.17651 0.015 0.34351 0.2161 0.34351 0.4133v3.466h0.73777v-2.7966c0-0.1099 0.044-0.2113 0.12395-0.2851 0.0797-0.074 0.18097-0.1086 0.29249-0.098 0.1902 0.018 0.33934 0.2011 0.33934 0.4142v0.013l-0.003 0.7523-0.003 0.7622c-0.004 0.037-0.006 0.075-0.006 0.1126v1.1259h0.73777l0.005-1.1937c0.0132-0.083 0.0519-0.1578 0.11211-0.2159 0.0733-0.072 0.17249-0.1066 0.27378-0.1028 0.18356 0.01 0.35085 0.2031 0.35085 0.4067v1.9829c0 0.9389-0.12302 1.8712-0.36081 2.7849-0.0656 0.2522-0.13873 0.5032-0.22218 0.7522-0.0474 0.1416-0.0965 0.2828-0.14988 0.4232-0.0197 0.052-0.0423 0.1212-0.0423 0.2003v0.5563l-4.0484-0.0001v-0.43c0-0.2416-0.12177-0.5411-0.26962-0.6897l-0.0501-0.06-0.63102-0.7522-0.3206-0.3822c-0.48079-0.4907-0.65487-0.9859-0.64163-1.8355l-0.004-1.0154c-0.00029-0.102 0.0382-0.1978 0.10879-0.2702 0.0706-0.073 0.16471-0.1124 0.26486-0.1124 0.20606 0 0.3735 0.171 0.3735 0.3811v1.2753h0.36918zm5.6246 4.6434v4.2793h-1.3883c0.0418-0.1189 0.0644-0.2472 0.0644-0.381 0-0.3036-0.11627-0.5886-0.32739-0.8033-0.21126-0.2145-0.49036-0.3369-0.78938-0.3301l-0.98777 0.01c-0.92713-0.012-1.5657 0.1938-2.1269 0.6887v-3.4583h5.5553zm2.5253 7.0842c0.0274-0.3256-0.0822-0.6518-0.3013-0.8951-0.10883-0.1207-0.24067-0.2155-0.38405-0.2782 0.0466-0.097 0.0794-0.2021 0.0967-0.3119 0.051-0.3323-0.0415-0.6682-0.25402-0.9212-0.21255-0.2535-0.52164-0.3985-0.84803-0.3985h-0.0968v-5.0315h-0.77522v-0.5042c0.0843-0.2236 0.15921-0.4491 0.22982-0.6755h1.9684v-0.7522h-1.7593c0.22207-0.9151 0.33632-1.8466 0.33632-2.7849v-1.9829c0-0.358-0.16571-0.6819-0.41773-0.8966h1.8407v-0.7523h-2.8908v-0.011c0-0.5982-0.44237-1.1099-1.0071-1.1648-0.18891-0.019-0.37826 0.013-0.54872 0.087-0.1434-0.4232-0.51804-0.7494-0.95639-0.7877-0.31816-0.026-0.63994 0.084-0.87799 0.3074-0.11889 0.1112-0.21137 0.2454-0.27305 0.392-0.0954-0.047-0.19813-0.081-0.30621-0.098-0.32639-0.053-0.65492 0.042-0.90307 0.2583-0.24871 0.2166-0.39091 0.5319-0.39091 0.8649v0.152h-5.3566v0.7906h-0.49468c-0.23661-0.093-0.47524-0.1742-0.71472-0.2508v-2.4199h-0.73778v2.2096c-0.88072-0.2179-1.7768-0.3292-2.6788-0.3292l-1.9452-0.0003c-0.38054 0-0.72409 0.1964-0.93188 0.491v-2.3711h-0.73778v3.3809c-0.5683 0.021-1.0482 0.4611-1.1007 1.0229-0.0182 0.1927 0.0124 0.385 0.0857 0.5593-0.415 0.146-0.7349 0.5282-0.77252 0.9754-0.0271 0.3259 0.0827 0.6523 0.3016 0.895 0.10893 0.1213 0.24066 0.2157 0.38416 0.2786-0.0464 0.097-0.0795 0.2017-0.0965 0.3118-0.0513 0.3322 0.0411 0.6679 0.25346 0.9211 0.21241 0.2531 0.5215 0.3985 0.84815 0.3985h0.0967v5.0318h0.77555v0.5043c-0.0843 0.2236-0.15925 0.4491-0.23 0.6753h-2.4253v0.7523h2.2164c-0.22203 0.9151-0.33631 1.8466-0.33631 2.7845l-0.0003 1.9832c0 0.358 0.1656 0.6816 0.41762 0.8963h-2.2974v0.7522h3.3478v0.011c0 0.5984 0.44237 1.1104 1.0071 1.1652 0.19034 0.019 0.37796-0.013 0.54886-0.087 0.14339 0.4231 0.51803 0.7496 0.95653 0.7873h0.0958c0.28718 0 0.56805-0.1109 0.7823-0.3118 0.11845-0.1113 0.21111-0.2453 0.27279-0.3915 0.0953 0.047 0.19783 0.081 0.30577 0.098 0.3258 0.051 0.65492-0.042 0.90333-0.2582 0.24856-0.2168 0.3911-0.5318 0.3911-0.865v-0.1525h5.3564v-0.7902h0.49568c0.23634 0.093 0.47468 0.1741 0.71401 0.2506v2.4202h0.73778v-2.2097c0.88057 0.2178 1.7767 0.3291 2.6788 0.3291h1.945c0.3804 0 0.7238-0.196 0.93155-0.4905v2.3711h0.73778v-3.3807c0.5682-0.021 1.0484-0.461 1.1008-1.0234 0.0182-0.1925-0.0122-0.385-0.0853-0.5591 0.41455-0.1461 0.7349-0.5282 0.77208-0.9756m-4.004-5.5226h0.73777v-0.7525h-0.73777v0.7525zm-8.4258-8.5256h0.73792v-0.7521h-0.73792v0.7521zm-8.2664 8.2433h0.73778v-0.7522h-0.73778v0.7522z" fill="#414a55"/>
 </g>
</svg>
