<svg xmlns:rdf="http://www.w3.org/1999/02/22-rdf-syntax-ns#" xmlns="http://www.w3.org/2000/svg" height="24" width="24" version="1.1" xmlns:cc="http://creativecommons.org/ns#" xmlns:dc="http://purl.org/dc/elements/1.1/" viewBox="0 0 24 24">
 <g transform="translate(0 -1028.4)">
  <path d="m2.5549 1049.4h10.408c0.13062 0 0.23663-0.106 0.23663-0.2366 0-0.1307-0.10601-0.2367-0.23663-0.2367h-10.408c-0.13062 0-0.23663 0.106-0.23663 0.2367 0 0.1306 0.10601 0.2366 0.23663 0.2366m0.066257-1.5247h13.722c0.13062 0 0.23663-0.106 0.23663-0.2366s-0.10601-0.2366-0.23663-0.2366h-13.722c-0.13062 0-0.23663 0.106-0.23663 0.2366s0.10601 0.2366 0.23663 0.2366m-0.95663-2.0552h16.1v5.228h-16.1v-1.7069l-0.72862-0.4272 0.72862-0.4271v-2.6668zm-0.4731 2.4-1.1913 0.7l1.1913 0.6983v1.9091h17.046v-6.1746h-17.046v2.869m1.3636-14.86h5.7011c0.13073 0 0.23663-0.1062 0.23663-0.2366 0-0.1315-0.10591-0.2366-0.23663-0.2366h-5.7011c-0.13062 0-0.23663 0.1051-0.23663 0.2366 0 0.1304 0.10601 0.2366 0.23663 0.2366m0.066257-1.525h13.722c0.13062 0 0.23663-0.1062 0.23663-0.2366s-0.10601-0.2366-0.23663-0.2366h-13.722c-0.13062 0-0.23663 0.1062-0.23663 0.2366s0.10601 0.2366 0.23663 0.2366m-0.95663-2.055h16.1v5.228h-16.1v-1.7069l-0.72862-0.427 0.72862-0.428v-2.6661zm16.573 5.7013v-6.1746h-17.046v2.8691l-1.191 0.7 1.1913 0.6984v1.9088h17.046m2.8242 3.9925-0.37356 0.467-0.777 0.9707-0.31088-0.3492-0.03302-0.037-0.35379 0.3134 0.71674 0.8067 1.501-1.8763-0.18478-0.1472-0.18468-0.1483m-1.8704 0.1485h-0.000105l-0.18468-0.1483-0.37356 0.467-0.777 0.9707-0.31088-0.3492-0.03313-0.037-0.35369 0.3134 0.71674 0.8067 1.501-1.8763-0.18468-0.1472m-3.2483 0.4261h-10.408c-0.13073 0-0.23663 0.1063-0.23663 0.2367s0.10591 0.2366 0.23663 0.2366h10.408c0.13073 0 0.23663-0.1062 0.23663-0.2366s-0.10591-0.2367-0.23663-0.2367m6.3925 2.4526h-17.425v-4.4508h17.425v1.8899l0.72873 0.427-0.72873 0.427v1.7069zm0.47327-4.9241h-18.372v5.3974h18.372v-1.9089l1.1914-0.6983-1.1914-0.6983v-2.0919" fill="#414a55"/>
 </g>
</svg>
