<svg xmlns:rdf="http://www.w3.org/1999/02/22-rdf-syntax-ns#" xmlns="http://www.w3.org/2000/svg" height="24" width="24" version="1.1" xmlns:cc="http://creativecommons.org/ns#" xmlns:dc="http://purl.org/dc/elements/1.1/" viewBox="0 0 24 24">
 <defs>
  <clipPath clipPathUnits="userSpaceOnUse">
   <path d="m960 965.33h960v960h-960v-960z"/>
  </clipPath>
 </defs>
 <g transform="translate(0 -1028.4)">
  <path d="m1733.1 1450.4 7.07 7.07-15.19 15.19-7.07-7.07-7.07-7.07 15.19-15.19 7.07 7.07m-101.58-78.63-102.19 101.85-53.6 0.23c-14.48-0.03-26.4-4.62-35.43-13.67l-34.26-34.43c-7.48-7.51-17.44-11.66-28.04-11.68-10.75 0.19-20.57 4.09-28.08 11.57l-5.96 5.95 102.16 102.56h77.12l22.77 22.76 135.32-135.34-49.81-49.8zm-12.4-50.48c-9.54-9.57-25.09-9.59-34.67-0.05l-0.21-0.22-34.07 33.96-14.13-14.16 35.42-35.31 0.09 0.09c8.24-9.61 7.93-24.08-1.15-33.19-4.65-4.66-10.72-7.44-17.37-7.22-6.52 0-12.64 2.53-17.27 7.13l-34.11 33.99-14.12-14.16 34.08-33.97c9.57-9.54 9.6-25.1 0.07-34.67-9.1-9.12-23.56-9.45-33.18-1.27l0.16 0.17-35.43 35.31-14.11-14.16 34.07-33.97-0.3-0.3c9.57-9.55 9.6-25.09 0.05-34.66-4.62-4.64-10.76-7.21-17.32-7.22h-0.03c-3.25 0-6.39 0.63-9.3 1.82 4.74 7 7.51 15.44 7.49 24.51-0.05 24.07-19.64 43.62-43.7 43.62h-0.07c-2.09 0-4.08-0.34-6.09-0.63 0.28 2.01 0.61 4 0.61 6.09-0.02 11.67-4.58 22.63-12.85 30.88-8.25 8.22-19.2 12.74-30.85 12.74h-0.07c-2.08 0-4.07-0.34-6.07-0.62 0.28 2.01 0.59 4.01 0.59 6.08-0.02 11.67-4.59 22.64-12.85 30.88-8.25 8.21-19.19 12.73-30.83 12.73h-0.09c-2.08 0-4.07-0.33-6.07-0.62 0.28 2.02 0.59 4.02 0.59 6.09-0.02 11.67-4.58 22.64-12.86 30.88-8.24 8.21-19.19 12.74-30.82 12.74h-0.09c-5.23-0.01-10.27-1.06-15.04-2.82l-42.61 42.61 138.69 138.7 28.95-28.94h45.64l-102.21-102.62 20.12-20.05c11.27-11.23 26.23-17.41 42.13-17.41h0.1c15.95 0.03 30.92 6.27 42.18 17.57l34.26 34.43c5.21 5.22 12.18 7.76 21.24 7.78l45.32-0.19 98.02-97.7c9.58-9.54 9.61-25.09 0.07-34.67m-356.78-4.08c-13.05 0-23.68 10.61-23.7 23.66 0 1.36 0.17 2.7 0.39 4.02 0.81 4.8 3.02 9.23 6.52 12.74 1.55 1.56 3.33 2.78 5.19 3.83 3.5 1.98 7.42 3.13 11.55 3.14h0.06c6.31 0 12.24-2.45 16.71-6.91 4.48-4.46 6.96-10.41 6.97-16.75 0-4.13-1.14-8.05-3.11-11.56-1.04-1.86-2.25-3.64-3.8-5.19-3.51-3.53-7.93-5.75-12.72-6.58-1.32-0.22-2.65-0.39-4.02-0.4h-0.04zm49.25-49.08c-13.05 0-23.68 10.61-23.7 23.65 0 1.38 0.18 2.71 0.4 4.02 1.22 7.13 5.63 13.12 11.71 16.56 3.43 1.94 7.33 3.15 11.54 3.15h0.01c6.46 0.28 12.27-2.43 16.76-6.9 4.48-4.46 6.96-10.41 6.97-16.75 0-4.13-1.14-8.05-3.11-11.56-1.04-1.86-2.26-3.64-3.81-5.2-3.5-3.52-7.92-5.74-12.71-6.57-1.32-0.23-2.66-0.4-4.03-0.4h-0.03zm49.25-49.08c-13.05 0-23.68 10.6-23.7 23.65 0 1.38 0.18 2.71 0.4 4.02 1.22 7.13 5.63 13.12 11.71 16.56 3.43 1.95 7.33 3.15 11.55 3.16h0.03c6.31 0 12.26-2.45 16.73-6.91 4.48-4.47 6.96-10.41 6.97-16.75 0-4.21-1.19-8.12-3.12-11.55-3.42-6.09-9.39-10.52-16.52-11.77-1.31-0.22-2.64-0.41-4.01-0.41h-0.04zm49.25-49.08c-13.04 0-23.67 10.6-23.7 23.66 0 1.37 0.18 2.7 0.4 4.01 1.22 7.13 5.63 13.11 11.71 16.56 3.43 1.94 7.33 3.15 11.55 3.16h0.03c13.05 0 23.67-10.61 23.7-23.66 0.01-4.22-1.18-8.12-3.11-11.55-3.43-6.1-9.4-10.53-16.53-11.77-1.31-0.23-2.63-0.41-4.01-0.41h-0.04zm337.02 257.31-21.6-21.6-192.27 192.27 128.31 128.32-14.14 14.14-142.45-142.46 26.9-26.9-16.9-16.9h-134.43l-23.08 23.08 20.72 20.72-142.46 142.46-14.14-14.14 128.32-128.32-192.28-192.27-24.78 24.79-14.14-14.15 38.92-38.92 32.86 32.85 39.83-39.83c-7.48-8.1-11.68-18.5-11.66-29.59 0.04-24.07 19.64-43.62 43.7-43.62h0.07c2.06 0.01 4.07 0.32 6.08 0.61-0.28-2-0.6-4-0.6-6.08 0.04-24.06 19.64-43.61 43.7-43.61h0.07c2.06 0.01 4.07 0.32 6.09 0.61-0.28-2.01-0.61-4-0.61-6.08 0.04-24.06 19.64-43.61 43.7-43.61h0.07c2.09 0 4.08 0.34 6.09 0.63-0.28-2.01-0.61-4.01-0.61-6.09 0.05-24.07 19.64-43.62 43.71-43.62h0.07c7.36 0.01 14.19 2.03 20.28 5.27 7.35-5.06 16.02-7.83 25.14-7.83h0.07c11.9 0.02 23.07 4.68 31.45 13.09 8.4 8.42 13.01 19.6 12.99 31.5 0 1.53-0.08 3.04-0.24 4.55 12.84-1.28 26.17 3 35.99 12.84 9.79 9.85 14.03 23.17 12.7 36.03 1.49-0.15 2.97-0.23 4.48-0.23h0.08c11.89 0.02 23.06 4.68 31.45 13.1 9.82 9.85 14.05 23.18 12.72 36.04 12.84-1.28 26.19 3.01 36 12.84 13.94 14 16.43 34.93 7.9 51.62l2.82-2.82 51.47 51.46 30.04-30.03 35.74 35.74-14.14 14.14" transform="matrix(.037351 0 0 -.037351 -41.785 1094.3)" fill="#414a55"/>
 </g>
</svg>
