<svg xmlns:rdf="http://www.w3.org/1999/02/22-rdf-syntax-ns#" xmlns="http://www.w3.org/2000/svg" height="24" width="24" version="1.1" xmlns:cc="http://creativecommons.org/ns#" xmlns:dc="http://purl.org/dc/elements/1.1/" viewBox="0 0 24 24">
 <g transform="matrix(.015817 0 0 -.015817 -124.28 70.043)">
  <path fill="#414a55" d="m8488.5 3360.5 717.9 981.5-195.2-1128.6-522.7 147zm5.22-362.73-19.24 328.56 163.49-46-144.25-282.56zm-163.33 388.15-1.47 3.99 11.25 12.31 676.53 742.45-565.94-773.57-10.59-14.53c-0.32-0.41-0.41-0.92-0.65-1.35-1.96-3.18-3.1-6.81-2.85-10.55l0.49-7.83 16.62-285.39-115.48 313.2-7.91 21.27zm786.56 923.25-816.31-895.84-381.4 107.3 1197.7 788.54zm-654.9-1386.2c0.08-0.18 0.25-0.32 0.33-0.5 0.57-1.44 1.31-2.77 2.2-3.98 0.16-0.21 0.25-0.44 0.41-0.63 1.06-1.28 2.28-2.37 3.5-3.31 0.33-0.22 0.66-0.42 0.98-0.62 0.49-0.31 0.98-0.67 1.47-0.94 0.65-0.31 1.3-0.45 1.87-0.69 0.49-0.19 0.98-0.41 1.55-0.56 1.63-0.45 3.26-0.76 4.89-0.76 1.31 0 2.53 0.13 3.83 0.39 0.16 0.04 0.25 0.15 0.41 0.19 1.95 0.48 3.83 1.19 5.46 2.21 0.33 0.2 0.57 0.51 0.9 0.73 1.3 0.92 2.44 1.96 3.42 3.15 0.41 0.5 0.81 1.07 1.14 1.62 0.41 0.59 0.9 1.07 1.22 1.71l178.32 349.23 346.87-97.57c1.63-0.45 3.26-0.68 4.97-0.68 3.42 0 6.84 0.97 9.78 2.83 4.4 2.77 7.42 7.27 8.31 12.38l211 1219.8c1.23 7.21-1.87 14.46-7.98 18.47-4.81 3.14-10.76 3.71-16.06 1.89-4.24-0.46-8.39-2.34-11.57-5.76l-2.36-2.61-1351.4-889.76c-6-3.96-9.14-11.04-8.04-18.14 1.1-7.09 6.25-12.89 13.16-14.84l423.97-119.27 167.48-453.97"/>
 </g>
</svg>
