<svg xmlns:rdf="http://www.w3.org/1999/02/22-rdf-syntax-ns#" xmlns="http://www.w3.org/2000/svg" height="24" width="24" version="1.1" xmlns:cc="http://creativecommons.org/ns#" xmlns:dc="http://purl.org/dc/elements/1.1/" viewBox="0 0 24 24">
 <g transform="translate(0 -1028.4)">
  <path d="m8.2293 1033.1c-0.90029 0-1.6328 0.7597-1.6328 1.6931 0 0.9336 0.73253 1.6932 1.6328 1.6932 0.9003 0 1.6328-0.7596 1.6328-1.6932 0-0.9334-0.73253-1.6931-1.6328-1.6931m0 3.984c-1.218 0-2.2091-1.0279-2.2091-2.2909s0.99109-2.2907 2.2091-2.2907 2.2091 1.0277 2.2091 2.2907-0.99109 2.2909-2.2091 2.2909m4.4063-2.6668h-1.0956c-0.1378 0-0.25626-0.1026-0.28264-0.2417-0.07939-0.4205-0.23577-0.8126-0.46488-1.166-0.07709-0.1187-0.06224-0.2771 0.03522-0.3781l0.77441-0.803-0.5138-0.5327-0.77415 0.8028c-0.09797 0.1017-0.25062 0.1162-0.3646 0.036-0.34078-0.2376-0.71896-0.3998-1.1242-0.482-0.13536-0.028-0.23282-0.1503-0.23282-0.2933v-1.1362h-0.72664v1.1362c0 0.143-0.097459 0.2657-0.23269 0.2933-0.40532 0.082-0.7835 0.2444-1.1243 0.482-0.11449 0.08-0.26714 0.064-0.36447-0.036l-0.77402-0.8027-0.51392 0.5328 0.77402 0.8029c0.097459 0.1006 0.11218 0.2593 0.03547 0.378-0.22924 0.3535-0.38573 0.7456-0.465 1.1661-0.02651 0.1395-0.14484 0.2418-0.28277 0.2418h-1.0955v0.7529h1.0955c0.13767 0 0.25626 0.1006 0.28277 0.2418 0.07953 0.4197 0.23602 0.8115 0.46526 1.166 0.07671 0.1182 0.06185 0.2763-0.03547 0.3772l-0.77428 0.8035 0.51392 0.5325 0.77415-0.8035c0.09758-0.1006 0.25049-0.1155 0.36447-0.035 0.34104 0.2377 0.71921 0.3997 1.1242 0.4821 0.13524 0.027 0.23269 0.15 0.23269 0.2922v1.1368h0.72664v-1.1368c0-0.1422 0.097459-0.2657 0.23282-0.2922 0.4052-0.082 0.78337-0.2444 1.124-0.4821 0.11423-0.08 0.26689-0.065 0.36447 0.035l0.77441 0.8035 0.51367-0.5325-0.77428-0.8035c-0.09733-0.1006-0.11218-0.259-0.03547-0.3785 0.22936-0.3532 0.38573-0.745 0.46513-1.1647 0.02638-0.1409 0.14484-0.2418 0.28264-0.2418h1.0956v-0.7529zm0.28815 1.3507h-1.1542c-0.0835 0.328-0.20811 0.6401-0.37216 0.9336l0.81577 0.846c0.11257 0.1156 0.11257 0.3054 0 0.4223l-0.92104 0.9549c-0.11257 0.1169-0.29494 0.1169-0.4075 0l-0.81603-0.846c-0.282 0.17-0.58321 0.3001-0.89966 0.3865v1.1966c0 0.1647-0.12909 0.2988-0.28815 0.2988h-1.3029c-0.15906 0-0.28815-0.1341-0.28815-0.2988v-1.1966c-0.31645-0.086-0.61753-0.2165-0.89965-0.3865l-0.8159 0.846c-0.11257 0.1169-0.29481 0.1169-0.40737 0l-0.9213-0.9549c-0.05404-0.056-0.0844-0.1328-0.0844-0.2111 0-0.08 0.03035-0.1555 0.0844-0.2112l0.8159-0.846c-0.16418-0.2935-0.28891-0.6056-0.37241-0.9336h-1.1542c-0.15918 0-0.28815-0.1342-0.28815-0.2989v-1.3506c0-0.1661 0.12896-0.2995 0.28815-0.2995h1.1542c0.0835-0.3281 0.20798-0.6406 0.37216-0.9332l-0.81564-0.8459c-0.11257-0.1167-0.11257-0.3059 0-0.4225l0.9213-0.9554c0.10809-0.1122 0.29942-0.1122 0.40737 0l0.81577 0.846c0.28213-0.1703 0.58334-0.2995 0.89978-0.386v-1.1972c0-0.1649 0.12909-0.2988 0.28815-0.2988h1.3029c0.15906 0 0.28815 0.1339 0.28815 0.2988v1.1972c0.31658 0.086 0.61791 0.2157 0.89991 0.386l0.81577-0.8461c0.05404-0.056 0.12742-0.087 0.20375-0.087s0.14971 0.031 0.20375 0.087l0.9213 0.9552c0.05404 0.056 0.08439 0.1321 0.08439 0.2114 0 0.079-0.03035 0.1552-0.08439 0.2114l-0.8159 0.8461c0.16418 0.2925 0.28853 0.6048 0.37203 0.933h1.1542c0.15906 0 0.28814 0.1334 0.28814 0.2995v1.3506c0 0.1647-0.12909 0.2989-0.28814 0.2989m-7.941 11.712c0.90029 0 1.6328-0.7596 1.6328-1.6932 0-0.9337-0.73253-1.6933-1.6328-1.6933-0.90029 0-1.6328 0.7596-1.6328 1.6933 0 0.9336 0.73253 1.6932 1.6328 1.6932m0-3.9841c1.218 0 2.2091 1.0279 2.2091 2.2909s-0.99109 2.2909-2.2091 2.2909-2.2091-1.0279-2.2091-2.2909 0.99109-2.2909 2.2091-2.2909m-4.4065 2.6667h1.0956c0.13767 0 0.25626 0.1006 0.28264 0.2417 0.07953 0.4211 0.23602 0.8127 0.46526 1.1661 0.07671 0.1182 0.06186 0.2775-0.03547 0.3785l-0.77415 0.8021 0.5138 0.5326 0.77415-0.8021c0.09759-0.1006 0.25049-0.1169 0.3646-0.037 0.34104 0.2377 0.71921 0.3996 1.124 0.4821 0.13524 0.028 0.23282 0.1499 0.23282 0.2935v1.1368h0.72651v-1.1368c0-0.1436 0.09759-0.2657 0.23282-0.2935 0.4052-0.083 0.78337-0.2444 1.124-0.4821 0.11423-0.08 0.26701-0.064 0.36447 0.037l0.77441 0.8021 0.51367-0.5326-0.77415-0.8021c-0.097459-0.1006-0.11218-0.2603-0.03547-0.3785 0.22924-0.3534 0.38573-0.7464 0.465-1.1661 0.02651-0.1395 0.14484-0.2417 0.28277-0.2417h1.0955v-0.753h-1.0955c-0.13793 0-0.25626-0.1006-0.28277-0.2417-0.07927-0.4197-0.23577-0.8115-0.46488-1.1647-0.07709-0.1196-0.06224-0.2776 0.03535-0.3785l0.77441-0.8035-0.51392-0.5326-0.77415 0.8035c-0.09771 0.1006-0.25062 0.1156-0.36447 0.035-0.34091-0.2377-0.71908-0.3997-1.1243-0.482-0.13524-0.027-0.23282-0.1501-0.23282-0.2936v-1.1353h-0.72651v1.1353c0 0.1435-0.09759 0.267-0.23282 0.2936-0.4052 0.082-0.78337 0.2443-1.1243 0.482-0.11449 0.08-0.26714 0.065-0.36447-0.035l-0.77402-0.8035-0.5138 0.5326 0.77402 0.8035c0.09733 0.1006 0.11218 0.2589 0.03535 0.3771-0.22911 0.3546-0.3856 0.7464-0.465 1.1661-0.02638 0.1408-0.14484 0.2417-0.28264 0.2417h-1.0956v0.753zm-0.28815-1.3506h1.1542c0.0835-0.3281 0.2081-0.6402 0.37216-0.9337l-0.81564-0.846c-0.11257-0.1155-0.11257-0.3054 0-0.4223l0.9213-0.9549c0.10809-0.1128 0.29942-0.1128 0.4075 0l0.81564 0.846c0.28213-0.1699 0.58346-0.3001 0.89991-0.3865v-1.1966c0-0.1647 0.12909-0.2988 0.28815-0.2988h1.3028c0.15906 0 0.28815 0.1341 0.28815 0.2988v1.1966c0.3167 0.086 0.61791 0.2166 0.89991 0.3865l0.8159-0.846c0.05391-0.056 0.1273-0.087 0.20362-0.087 0.07645 0 0.14971 0.032 0.20375 0.087l0.9213 0.9549c0.05404 0.056 0.0844 0.1329 0.0844 0.2112 0 0.08-0.03035 0.1554-0.0844 0.2111l-0.8159 0.846c0.16418 0.2935 0.28853 0.6056 0.37203 0.9337h1.1542c0.15918 0 0.28814 0.1342 0.28814 0.2988v1.3507c0 0.166-0.12896 0.2987-0.28814 0.2987h-1.1542c-0.0835 0.328-0.20798 0.6415-0.37216 0.9337l0.8159 0.846c0.11244 0.1169 0.11244 0.3054 0 0.4224l-0.92117 0.9561c-0.11257 0.1156-0.29493 0.1156-0.40737 0l-0.81616-0.846c-0.28187 0.1701-0.58321 0.2989-0.89965 0.3852v1.1979c0 0.1647-0.12909 0.2988-0.28815 0.2988h-1.3028c-0.15906 0-0.28815-0.1341-0.28815-0.2988v-1.1979c-0.31645-0.086-0.61766-0.2152-0.89978-0.3852l-0.81577 0.846c-0.11257 0.1169-0.29493 0.1156-0.4075 0l-0.9213-0.9561c-0.05404-0.056-0.08439-0.1316-0.08439-0.2113 0-0.078 0.03035-0.1552 0.08439-0.2111l0.8159-0.846c-0.16418-0.2922-0.28891-0.6043-0.37241-0.9337h-1.1542c-0.16001-0.1-0.2891-0.2-0.2891-0.4v-1.3507c0-0.1646 0.12909-0.2988 0.28815-0.2988m16.406 1.9708c0.74188 0 1.4585-0.2775 2.0174-0.7822 0.67119-0.607 1.0561-1.4835 1.0561-2.4052 0-1.757-1.3789-3.1873-3.0736-3.1873s-3.0736 1.4303-3.0736 3.1873c0 1.7584 1.3789 3.1874 3.0736 3.1874m0-6.9724c2.0125 0 3.6498 1.6986 3.6498 3.785 0 1.0957-0.45694 2.1356-1.2539 2.8554-0.66389 0.6003-1.5149 0.9297-2.396 0.9297-2.0125 0-3.6498-1.6973-3.6498-3.7851 0-2.0864 1.6373-3.785 3.6498-3.785m-5.3153 6.4757-0.67464 0.4037c-0.02356 0.014-0.03189 0.047-0.01819 0.071l0.36101 0.6494c0.0137 0.024 0.04405 0.032 0.06761 0.019l0.67657-0.4051c0.26253-0.158 0.59524-0.098 0.78952 0.1435 0.20298 0.2509 0.4285 0.4848 0.67068 0.6946 0.23192 0.2019 0.28981 0.5457 0.13793 0.8194l-0.3906 0.7012c-0.0085 0.014-0.0073 0.029-0.0049 0.038 0.0024 0.01 0.0085 0.023 0.02305 0.032l0.62521 0.3744c0.02331 0.014 0.0539 0.01 0.06775-0.019l0.38945-0.6999c0.15201-0.2736 0.46846-0.3932 0.75289-0.2855 0.29468 0.1101 0.60267 0.1952 0.91554 0.2523 0.2989 0.053 0.51572 0.3214 0.51572 0.6375v0.8101c0 0.028 0.02215 0.052 0.04956 0.052h0.72203c0.02741 0 0.04956-0.024 0.04956-0.052v-0.8101c0-0.3161 0.21707-0.5844 0.51584-0.6375 0.31299-0.057 0.62099-0.1422 0.91553-0.2523 0.06993-0.027 0.14177-0.039 0.21272-0.039 0.2172 0 0.42543 0.1195 0.54005 0.3253l0.3897 0.6985c0.01345 0.025 0.04405 0.033 0.06749 0.02l0.62521-0.3745c0.0237-0.014 0.03189-0.047 0.01819-0.07l-0.39073-0.7012c-0.15176-0.2737-0.09361-0.6175 0.13831-0.8194 0.24191-0.2098 0.46769-0.445 0.67042-0.6946 0.1944-0.2418 0.5266-0.3015 0.78978-0.1435l0.67644 0.4051c0.02305 0.014 0.05366 0.01 0.06761-0.019l0.36101-0.6494c0.0084-0.014 0.0075-0.029 0.005-0.038-0.0026-0.01-0.0084-0.023-0.02318-0.032l-0.67477-0.4037c-0.26292-0.1567-0.37894-0.4861-0.27521-0.7809 0.10719-0.3054 0.18915-0.6242 0.2432-0.9482 0.05174-0.3107 0.31043-0.5353 0.61522-0.5353h0.7812c0.02741 0 0.04956-0.024 0.04956-0.052v-0.7491c0-0.028-0.02215-0.051-0.04956-0.051h-0.7812c-0.30479 0-0.56348-0.2257-0.6151-0.5352-0.05417-0.3241-0.13613-0.6441-0.24332-0.9495-0.10373-0.2948 0.0123-0.6229 0.27521-0.781l0.67477-0.4037c0.01473-0.01 0.02062-0.023 0.02318-0.032 0.0024-0.01 0.0034-0.023-0.005-0.038l-0.36101-0.6481c-0.0137-0.025-0.04431-0.033-0.06761-0.019l-0.67644 0.405c-0.26279 0.1567-0.59524 0.096-0.78978-0.1434-0.20273-0.2511-0.4285-0.4848-0.67029-0.6959-0.23205-0.2006-0.2902-0.5459-0.13818-0.8182l0.39047-0.7025c0.0137-0.024 0.0055-0.056-0.01793-0.069l-0.62547-0.3746c-0.02331-0.014-0.05379-0.01-0.06749 0.019l-0.3897 0.6999c-0.15188 0.2723-0.46846 0.3931-0.75276 0.2856-0.29455-0.1116-0.60254-0.1967-0.91553-0.2524-0.29878-0.055-0.51585-0.3227-0.51585-0.6388v-0.8101c0-0.028-0.02215-0.051-0.04956-0.051h-0.72203c-0.02741 0-0.04956 0.023-0.04956 0.051v0.8101c0 0.3161-0.21681 0.5844-0.51572 0.6388-0.31286 0.056-0.62086 0.1408-0.91553 0.2524-0.28405 0.1075-0.60088-0.014-0.75289-0.2856l-0.38944-0.6999c-0.01384-0.025-0.04431-0.033-0.06775-0.019l-0.62521 0.3746c-0.0146 0.01-0.02062 0.021-0.02305 0.03-0.0024 0.01-0.0036 0.024 0.0049 0.038l0.3906 0.7026c0.15188 0.2722 0.094 0.6162-0.13805 0.8181-0.24204 0.2112-0.46756 0.4449-0.67055 0.696-0.19428 0.2403-0.52699 0.3001-0.78952 0.1434l-0.67657-0.4051c-0.02382-0.014-0.05391-0.01-0.06761 0.019l-0.36101 0.648c-0.0137 0.025-0.0054 0.056 0.01805 0.071l0.67477 0.4037c0.26317 0.158 0.37894 0.4861 0.27534 0.781-0.10732 0.3054-0.18902 0.6242-0.24319 0.9495-0.05187 0.3094-0.31056 0.5352-0.61535 0.5352h-0.7812c-0.02741 0-0.04944 0.023-0.04944 0.051v0.7491c0 0.028 0.02203 0.052 0.04944 0.052h0.7812c0.30479 0 0.56348 0.2245 0.6151 0.5339 0.05443 0.3254 0.13613 0.6442 0.24345 0.9496 0.1036 0.2948-0.01216 0.6242-0.27534 0.7809m-0.58321-1.6668h-0.7812c-0.34501 0-0.62572-0.2907-0.62572-0.6493v-0.7491c0-0.3573 0.28072-0.6481 0.62572-0.6481h0.7812c0.02331 0 0.04367-0.018 0.04738-0.039 0.06006-0.3599 0.15086-0.7132 0.26983-1.0519 0.0074-0.021-0.0017-0.047-0.02215-0.058l-0.67503-0.4037c-0.29839-0.1793-0.40123-0.5777-0.2286-0.8872l0.36089-0.6481c0.17263-0.3107 0.55657-0.417 0.85483-0.2377l0.67657 0.405c0.01998 0.012 0.0452 0.01 0.05981-0.01 0.2245-0.2775 0.47422-0.5365 0.74188-0.7702 0.01716-0.014 0.02114-0.041 0.0092-0.061l-0.39047-0.7027c-0.08376-0.1501-0.10591-0.3241-0.0625-0.4912 0.04316-0.1675 0.14663-0.3083 0.29147-0.3946l0.62521-0.3744c0.29929-0.1793 0.68258-0.072 0.85496 0.2376l0.38944 0.7c0.01152 0.022 0.03509 0.031 0.05648 0.023 0.32669-0.1235 0.66811-0.2179 1.0147-0.2802 0.02152 0 0.03766-0.025 0.03766-0.049v-0.8101c0-0.3573 0.28085-0.6481 0.62585-0.6481h0.72203c0.34501 0 0.62585 0.2907 0.62585 0.6481v0.8101c0 0.024 0.01626 0.045 0.0379 0.049 0.34642 0.062 0.68771 0.1567 1.0145 0.2802 0.02075 0.01 0.04457 0 0.05648-0.023l0.38957-0.7c0.17263-0.3095 0.55567-0.4169 0.8547-0.2376l0.6256 0.3744c0.29865 0.1793 0.40123 0.5763 0.22872 0.8858l-0.39034 0.7027c-0.01191 0.021-0.0081 0.047 0.0091 0.061 0.26791 0.2337 0.51738 0.4927 0.74175 0.7702 0.01396 0.018 0.04034 0.021 0.06007 0.01l0.67644-0.405c0.29929-0.1793 0.68233-0.073 0.8547 0.2377l0.36114 0.6481c0.08363 0.1501 0.10578 0.3254 0.06249 0.4927-0.04316 0.1674-0.14676 0.3069-0.2916 0.3946l-0.67477 0.4037c-0.02023 0.011-0.02959 0.036-0.0219 0.058 0.11897 0.3387 0.20977 0.6932 0.2697 1.0519 0.0036 0.023 0.02408 0.039 0.04726 0.039h0.78119c0.34501 0 0.62585 0.2908 0.62585 0.6481v0.7491c0 0.3586-0.28085 0.6493-0.62585 0.6493h-0.78119c-0.02318 0-0.04367 0.016-0.04738 0.038-0.05981 0.3599-0.1506 0.7132-0.26958 1.0531-0.0077 0.022 0.0017 0.046 0.0219 0.058l0.67477 0.4037c0.14484 0.086 0.24845 0.2258 0.2916 0.3931 0.04329 0.1673 0.02113 0.3427-0.06249 0.4928l-0.36114 0.6493c-0.17225 0.3095-0.55542 0.4157-0.8547 0.2364l-0.67644-0.4051c-0.02011-0.012-0.04572-0.01-0.06006 0.01-0.22437 0.2775-0.47384 0.5365-0.74188 0.7689-0.01703 0.015-0.02088 0.042-0.0092 0.062l0.3906 0.7012c0.1725 0.3095 0.06979 0.7079-0.22885 0.8857l-0.62547 0.3746c-0.29903 0.1793-0.68207 0.074-0.8547-0.2377l-0.38957-0.6985c-0.01204-0.022-0.03586-0.031-0.05648-0.024-0.32682 0.1235-0.66811 0.2178-1.0145 0.2802-0.02164 0-0.0379 0.025-0.0379 0.049v0.8101c0 0.3573-0.28085 0.6494-0.62585 0.6494h-0.72203c-0.34501 0-0.62585-0.2921-0.62585-0.6494v-0.8101c0-0.024-0.01614-0.046-0.03766-0.049-0.34654-0.062-0.68796-0.1567-1.0147-0.2802-0.02113-0.01-0.0447 0-0.05648 0.024l-0.38944 0.6985c-0.17263 0.3108-0.55644 0.417-0.85496 0.2377l-0.62521-0.3746c-0.14484-0.086-0.24832-0.2256-0.29148-0.393-0.04341-0.1674-0.02126-0.3426 0.0625-0.4927l0.39047-0.7012c0.01192-0.021 0.0079-0.048-0.009-0.062-0.26791-0.2324-0.51764-0.4914-0.74214-0.7689-0.01447-0.019-0.03957-0.023-0.05981-0.01l-0.67657 0.4051c-0.29865 0.1793-0.6822 0.074-0.85483-0.2377l-0.36089-0.648c-0.17263-0.3095-0.0698-0.7066 0.22885-0.8859l0.67477-0.4037c0.02049-0.014 0.02958-0.037 0.02215-0.058-0.11897-0.3387-0.20977-0.6932-0.26996-1.0531-0.0036-0.023-0.02396-0.038-0.04726-0.038" fill="#414a55"/>
 </g>
</svg>
