<svg xmlns:rdf="http://www.w3.org/1999/02/22-rdf-syntax-ns#" xmlns="http://www.w3.org/2000/svg" xml:space="preserve" height="20" viewBox="0 0 24 20" width="24" version="1.1" xmlns:cc="http://creativecommons.org/ns#" xmlns:dc="http://purl.org/dc/elements/1.1/"><g transform="matrix(1.25,0,0,-1.25,0,20)"><path d="m14.706 4.8642h-1.4425v-0.45802h4.5528v0.45802h-3.1103m0 0.88094h-1.4425v-0.45802h4.5528v0.45802h-3.1103m0 0.88073h-1.4425v-0.45802h4.5528v0.45802h-3.1103m2.881 0.9929h-4.0943v2.0082h4.0943v-2.0082zm-2.4225 2.4662h-1.901c-0.12665 0-0.22925-0.1025-0.22925-0.22901v-2.4662c0-0.12647 0.1026-0.22901 0.22925-0.22901h4.5528c0.12665 0 0.22925 0.10254 0.22925 0.22901v2.4662c0 0.12652-0.1026 0.22901-0.22925 0.22901h-2.6518m1.1598 0.88722h1.492v0.45802h-1.492v-0.45802zm0 0.68856h1.492v0.45802h-1.492v-0.45802zm0 0.68856h1.492v0.45802h-1.492v-0.45802zm-2.8316 0.03909h0.95929v-0.95818h-0.95929v0.95818zm-0.22925-1.4162h1.4178c0.0085 0 0.01651 0.0016 0.02476 0.0024 0.11483 0.01252 0.20449 0.1085 0.20449 0.22657v1.4162c0 0.03064-0.0063 0.05985-0.01722 0.08652-0.03118 0.07613-0.1023 0.13079-0.18727 0.14005-0.0083 0.000814-0.0163 0.0024-0.02476 0.0024h-1.4178c-0.09598 0-0.1779-0.05893-0.21203-0.1425-0.011-0.02667-0.01722-0.05588-0.01722-0.08652v-1.4162c0-0.12652 0.1026-0.22901 0.22925-0.22901m2.1239-9.5796h0.17596v-0.21891h-0.17596v0.21891zm-0.22925 0.45802c-0.12655 0-0.22925-0.10251-0.22925-0.22901v-0.67694c0-0.12651 0.1027-0.22901 0.22925-0.22901h0.63446c0.12665 0 0.22925 0.1025 0.22925 0.22901v0.67694c0 0.12651-0.1026 0.22901-0.22925 0.22901h-0.63446m0.31667 13.059c0.06123 0 0.11931 0.02432 0.162 0.06708 0.0429 0.04284 0.06725 0.10239 0.06725 0.16194 0 0.06097-0.02435 0.11908-0.06725 0.16173-0.08559 0.0856-0.23995 0.0856-0.32391 0-0.04289-0.04265-0.06735-0.10077-0.06735-0.16173 0-0.05955 0.02445-0.11909 0.06735-0.16194 0.04269-0.04275 0.1024-0.06708 0.1619-0.06708m0.84955-0.11033h-1.698c-0.06419 0-0.12206-0.02646-0.16363-0.06891-0.04045-0.04133-0.06562-0.09771-0.06562-0.1601 0-0.12652 0.1026-0.22901 0.22925-0.22901h1.698c0.12665 0 0.22925 0.10249 0.22925 0.22901s-0.1026 0.22901-0.22925 0.22901m2.417-0.89456h-6.5319v0.96958c0 0.36815 0.29986 0.66779 0.6685 0.66779h5.1949c0.36853 0 0.6685-0.29965 0.6685-0.66779v-0.96958zm0-11.333h-0.6958v1.0067c0 0.12651-0.1026 0.22901-0.22925 0.22901h-4.5528c-0.12665 0-0.22925-0.10251-0.22925-0.22901v-1.0067h-0.82479v10.875h6.5319v-10.875zm-5.2486 0v0.77773h4.0943v-0.77773h-4.0943zm5.2486-1.4456c0-0.36824-0.29996-0.66791-0.6685-0.66791h-5.1949c-0.36864 0-0.6685 0.29966-0.6685 0.66791v0.98756h6.5319v-0.98756zm-6.9904 12.55v-0.5137h-11.293v1.1103h11.293v-0.59665zm0-5.1704h-1.4683c-0.12664 0-0.22924-0.10249-0.22924-0.22901v-2.1808c0-0.12651 0.1026-0.22901 0.22924-0.22901h1.4683v-0.65817h-1.1644v-0.45802h1.1644v-0.41281h-1.1644v-0.45802h1.1644v-0.37092h-1.1644v-0.45802h1.1644v-1.3225h-11.293v10.976h11.293v-4.1987zm0-2.1808h-1.2391v1.7228h1.2391v-1.7228zm6.319 9.6752h-5.195c-0.62142 0-1.127-0.50504-1.127-1.1258v-0.14392h-11.751v-13.46h11.751v-0.14393c0-0.62086 0.506-1.126 1.127-1.126h5.1949c0.621 0 1.127 0.50514 1.127 1.1259v13.748c0 0.621-0.506 1.126-1.127 1.126m-11.896-12.95h2.7358v0.45802h-2.7358v-0.45802zm0 0.82894h2.7358v0.45802h-2.7358v-0.45802zm0 0.87083h2.7358v0.45802h-2.7358v-0.45802zm-4.3431-1.6998h2.7358v0.45802h-2.7358v-0.45802zm0 0.82894h2.7358v0.45802h-2.7358v-0.45802zm0 0.87083h2.7358v0.45802h-2.7358v-0.45802zm7.916 5.6494h1.6186v0.45806h-1.6186v-0.45806zm-2.205 0h1.6186v0.45806h-1.6186v-0.45806zm-5.8431 0.9254h1.3943v-1.3929h-1.3943v1.3929zm-0.22925-1.8509h1.8528c0.12664 0 0.22925 0.10251 0.22925 0.22901v1.8509c0 0.12652-0.10261 0.22901-0.22925 0.22901h-1.8528c-0.12665 0-0.22925-0.1025-0.22925-0.22901v-1.8509c0-0.12651 0.1026-0.22901 0.22925-0.22901m4.6345-1.427h3v-1.7228h-3v1.7228zm-0.22925-2.1808h3.4585c0.12665 0 0.22925 0.10251 0.22925 0.22901v2.1808c0 0.12652-0.1026 0.22901-0.22925 0.22901h-3.4585c-0.12664 0-0.22925-0.10249-0.22925-0.22901v-2.1808c0-0.12651 0.10261-0.22901 0.22925-0.22901m-4.176 2.1808h3v-1.7228h-3v1.7228zm-0.22925-2.1808h3.4585c0.12665 0 0.22925 0.10251 0.22925 0.22901v2.1808c0 0.12652-0.1026 0.22901-0.22925 0.22901h-3.4585c-0.12665 0-0.22925-0.10249-0.22925-0.22901v-2.1808c0-0.12651 0.1026-0.22901 0.22925-0.22901m0.90633 7.5804c0.061174 0 0.11924 0.02454 0.16199 0.06728 0.042865 0.04275 0.068806 0.10066 0.068806 0.16173 0 0.05955-0.025941 0.11919-0.068806 0.16194-0.085577 0.08539-0.23686 0.08539-0.32402 0-0.042753-0.04275-0.067226-0.10239-0.067226-0.16194 0-0.06107 0.024474-0.11898 0.067226-0.16173 0.044332-0.04275 0.10244-0.06728 0.16202-0.06728m-0.7412 0c0.059585 0 0.1192 0.02454 0.16195 0.06728 0.042824 0.04275 0.067298 0.10066 0.067298 0.16173 0 0.05955-0.024474 0.11919-0.067298 0.16194-0.085536 0.08539-0.23992 0.08397-0.32394 0-0.042865-0.04275-0.067267-0.10239-0.067267-0.16194 0-0.06107 0.024403-0.11898 0.067267-0.16173 0.042743-0.04275 0.10081-0.06728 0.16198-0.06728m-0.74284 0c0.059661 0 0.11928 0.02454 0.16203 0.06728 0.042824 0.04123 0.067267 0.10066 0.067267 0.16173 0 0.05955-0.024443 0.11919-0.067267 0.16194-0.085609 0.08397-0.23844 0.08397-0.32401 0-0.042746-0.04275-0.067262-0.10239-0.067262-0.16194 0-0.06107 0.024517-0.12051 0.067262-0.16173 0.042826-0.04275 0.10089-0.06728 0.16199-0.06728" fill="#414a55"/></g></svg>
